# xmcd
#
# Track frame offsets:
#	150
#	26544
#	46005
#	55055
#	87122
#	103097
#	130280
#	156265
#	175362
#	188017
#	204947
#	210727
#	231580
#	250615
#
# Disc length: 3555 seconds
#
# Revision: 1
# Processed by: cddbd v1.4PL0 Copyright (c) Steve Scherf et al.
# Submitted via: audiograbber 1.82.02
#
DISCID=b70de10e
DTITLE=Long Dog - Loose ends
DYEAR=1998
DGENRE=
TTITLE0=I'm a King Bee
TTITLE1=I'm tore down
TTITLE2=Cakewalk into town
TTITLE3=Why am I treated so bad
TTITLE4=Echoes in my head
TTITLE5=She could be famous
TTITLE6=I love the life i live
TTITLE7=Talkin' to my baby
TTITLE8=Country sugar mama
TTITLE9=Corinna Corinna
TTITLE10=Watch'n chain
TTITLE11=Spoonful
TTITLE12=People get ready
TTITLE13=Little red book
EXTD=
EXTT0=
EXTT1=
EXTT2=
EXTT3=
EXTT4=
EXTT5=
EXTT6=
EXTT7=
EXTT8=
EXTT9=
EXTT10=
EXTT11=
EXTT12=
EXTT13=
PLAYORDER=
